<svg height="512pt" viewBox="0 -40 512 512" width="512pt" xmlns="http://www.w3.org/2000/svg"><path d="m284.332031 138c5.523438 0 10-4.476562 10-10s-4.476562-10-10-10h-18.332031v-34h50c5.523438 0 10-4.476562 10-10v-64c0-5.523438-4.476562-10-10-10h-120c-5.523438 0-10 4.476562-10 10v64c0 5.523438 4.476562 10 10 10h50v34h-127.332031c-5.523438 0-10 4.476562-10 10v46h-50c-5.523438 0-10 4.476562-10 10v64c0 5.523438 4.476562 10 10 10h50v34h-58.667969c-5.523438 0-10 4.476562-10 10v46h-30c-5.523438 0-10 4.476562-10 10v64c0 5.523438 4.476562 10 10 10h80c5.523438 0 10-4.476562 10-10v-64c0-5.523438-4.476562-10-10-10h-30v-36h117.332031v36h-30c-5.519531 0-10 4.476562-10 10v64c0 5.523438 4.480469 10 10 10h80c5.523438 0 10-4.476562 10-10v-64c0-5.523438-4.476562-10-10-10h-30v-46c0-5.523438-4.476562-10-10-10h-58.664062v-34h50c5.519531 0 10-4.476562 10-10v-64c0-5.523438-4.480469-10-10-10h-50v-36zm-78.332031-118h100v44h-100zm-126 392h-60v-44h60zm137.332031 0h-60v-44h60zm-48.664062-174h-100v-44h100zm0 0"/><path d="m502 348h-30v-46c0-5.523438-4.476562-10-10-10h-58.667969v-34h50c5.523438 0 10-4.476562 10-10v-64c0-5.523438-4.476562-10-10-10h-50v-46c0-5.523438-4.476562-10-10-10h-19c-5.519531 0-10 4.476562-10 10s4.480469 10 10 10h9v36h-50c-5.519531 0-10 4.476562-10 10v64c0 5.523438 4.480469 10 10 10h50v34h-58.664062c-5.523438 0-10 4.476562-10 10v46h-30c-5.523438 0-10 4.476562-10 10v64c0 5.523438 4.476562 10 10 10h80c5.519531 0 10-4.476562 10-10v-64c0-5.523438-4.480469-10-10-10h-30v-36h117.332031v36h-30c-5.523438 0-10 4.476562-10 10v64c0 5.523438 4.476562 10 10 10h80c5.523438 0 10-4.476562 10-10v-64c0-5.523438-4.476562-10-10-10zm-158.667969-154h100v44h-100zm11.335938 218h-60v-44h60zm137.332031 0h-60v-44h60zm0 0"/><path d="m319.328125 128c0 2.628906 1.070313 5.210938 2.933594 7.070312 1.859375 1.859376 4.4375 2.929688 7.066406 2.929688 2.632813 0 5.210937-1.070312 7.070313-2.929688 1.871093-1.859374 2.929687-4.441406 2.929687-7.070312s-1.058594-5.210938-2.929687-7.070312c-1.859376-1.859376-4.429688-2.929688-7.070313-2.929688-2.628906 0-5.207031 1.070312-7.066406 2.929688-1.863281 1.859374-2.933594 4.441406-2.933594 7.070312zm0 0"/></svg>