<svg xmlns="http://www.w3.org/2000/svg" width="100" height="125"><rect id="backgroundrect" width="100%" height="100%" x="0" y="0" fill="none" stroke="none"/><title>k-nn</title><g class="currentLayer" style=""><title>Layer 1</title><g id="svg_1" class=""><g id="svg_2"><g id="svg_3"><g id="svg_4"><g id="svg_5"><rect x="7.600000187754631" y="57.16999892890453" width="6.400000095367432" height="6.400000095367432" rx="3.200000047683716" id="svg_6"/><rect x="39.599999234080315" y="29.170000836253166" width="6.400000095367432" height="6.400000095367432" rx="3.200000047683716" id="svg_7"/><rect x="82.60000304877758" y="85.1700027436018" width="6.400000095367432" height="6.400000095367432" rx="3.200000047683716" id="svg_8"/><rect x="50.599999234080315" y="70.1700027436018" width="6.400000095367432" height="6.400000095367432" rx="3.200000047683716" id="svg_9"/><rect x="87.60000304877758" y="38.16999892890453" width="6.400000095367432" height="6.400000095367432" rx="3.200000047683716" id="svg_10"/><g id="svg_11"><path d="M49.79999999701977,46.46999999701977 A3.33,3.33 0 1 0 53.129999997019766,49.79999999701977 A3.33,3.33 0 0 0 49.79999999701977,46.46999999701977 zm0,5.66 A2.33,2.33 0 1 1 52.129999997019766,49.79999999701977 A2.33,2.33 0 0 1 49.79999999701977,52.129999997019766 z" id="svg_12"/><polygon points="70.10999755561352,35.39999695122242 70.81999664008617,34.68999786674976 68.50999908149242,32.38000030815601 70.81999664008617,30.060000613331795 70.10999755561352,29.349999621510506 67.79999999701977,31.670001223683357 65.49000243842602,29.349999621510506 64.78000335395336,30.060000613331795 67.09000091254711,32.38000030815601 64.78000335395336,34.68999786674976 65.49000243842602,35.39999695122242 67.79999999701977,33.0799972563982 70.10999755561352,35.39999695122242 " id="svg_13"/><polygon points="32.48999862372875,15.400000765919685 34.79999999701977,13.08000011742115 37.11000137031078,15.400000765919685 37.82000045478344,14.690000727772713 35.509999081492424,12.370000079274178 37.82000045478344,10.060000613331795 37.11000137031078,9.350000575184822 34.79999999701977,11.67000027000904 32.48999862372875,9.350000575184822 31.779999539256096,10.060000613331795 34.09000091254711,12.370000079274178 31.779999539256096,14.690000727772713 32.48999862372875,15.400000765919685 " id="svg_14"/><polygon points="73.81999664008617,57.05999679863453 73.10999755561352,56.34999771416187 70.79999999701977,58.66999740898609 68.49000243842602,56.34999771416187 67.78000335395336,57.05999679863453 70.09000091254711,59.38000030815601 67.78000335395336,61.68999786674976 68.49000243842602,62.39999695122242 70.79999999701977,60.0799972563982 73.10999755561352,62.39999695122242 73.81999664008617,61.68999786674976 71.50999908149242,59.38000030815601 73.81999664008617,57.05999679863453 " id="svg_15"/><polygon points="30.10999946296215,53.34999771416187 27.799999997019768,55.66999740898609 25.490000531077385,53.34999771416187 24.779999539256096,54.05999679863453 27.09000091254711,56.38000030815601 24.779999539256096,58.68999786674976 25.490000531077385,59.39999695122242 27.799999997019768,57.0799972563982 30.10999946296215,59.39999695122242 30.82000045478344,58.68999786674976 28.509999081492424,56.38000030815601 30.82000045478344,54.05999679863453 30.10999946296215,53.34999771416187 " id="svg_16"/><path d="M49.79999999701977,14.989999997019767 A34.81,34.81 0 1 0 84.60999999701977,49.79999999701977 A34.84,34.84 0 0 0 49.79999999701977,14.989999997019767 zm0,68.62 A33.81,33.81 0 1 1 83.60999999701977,49.79999999701977 A33.85,33.85 0 0 1 49.79999999701977,83.60999999701977 z" id="svg_17"/></g></g></g></g></g></g><path fill="#000000" fill-opacity="1" stroke="none" stroke-opacity="1" stroke-width="1" stroke-dasharray="none" stroke-linejoin="miter" stroke-linecap="butt" stroke-dashoffset="" fill-rule="nonzero" opacity="1" marker-start="" marker-mid="" marker-end="" d="M21,32 C21,31.447513812154696 21,31 21,31 C21,31 21,31.447513812154696 21,32 C21,32.552486187845304 21,33 21,33 C21,33 21,32.552486187845304 21,32 Z" id="svg_21"/><path fill="none" fill-opacity="1" stroke="#000000" stroke-opacity="1" stroke-width="1" stroke-dasharray="none" stroke-linejoin="miter" stroke-linecap="butt" stroke-dashoffset="" fill-rule="nonzero" opacity="1" marker-start="" marker-mid="" marker-end="" d="M42,16 C42,16 42,16 42,16 C42,16 42,16 42,16 C42,16 42,16 42,16 C42,16 42,16 42,16 Z" id="svg_18"/><path fill="none" fill-opacity="1" stroke="#000000" stroke-opacity="1" stroke-width="1" stroke-dasharray="none" stroke-linejoin="miter" stroke-linecap="butt" stroke-dashoffset="" fill-rule="nonzero" opacity="1" marker-start="" marker-mid="" marker-end="" d="M16.39999978895674,49.90000057840796 C16.39999978895674,31.391712961198028 31.391712772154584,16.399999991257992 49.90000040573216,16.399999991257992 C68.40828803930975,16.399999991257992 83.40000102250758,31.391712961198028 83.40000102250758,49.90000057840796 C83.40000102250758,68.40828819561789 68.40828803930975,83.40000116555794 49.90000040573216,83.40000116555794 C31.391712772154584,83.40000116555794 16.39999978895674,68.40828819561789 16.39999978895674,49.90000057840796 z" id="svg_19" class=""/><path fill="none" fill-opacity="1" stroke="#000000" stroke-opacity="1" stroke-width="1" stroke-dasharray="none" stroke-linejoin="miter" stroke-linecap="butt" stroke-dashoffset="" fill-rule="nonzero" opacity="1" marker-start="" marker-mid="" marker-end="" d="M7.2242426399028545,60.400000066648786 C7.2242426399028545,58.63204431513951 8.829867923665867,57.20000015641699 10.81212136041033,57.20000015641699 C12.794374797154793,57.20000015641699 14.400000080917806,58.63204431513951 14.400000080917806,60.400000066648786 C14.400000080917806,62.167955818158056 12.794374797154793,63.599999976880575 10.81212136041033,63.599999976880575 C8.829867923665867,63.599999976880575 7.2242426399028545,62.167955818158056 7.2242426399028545,60.400000066648786 z" id="svg_20" class=""/><path fill="none" fill-opacity="1" stroke="#000000" stroke-opacity="1" stroke-width="1" stroke-dasharray="none" stroke-linejoin="miter" stroke-linecap="butt" stroke-dashoffset="" fill-rule="nonzero" opacity="1" marker-start="" marker-mid="" marker-end="" d="M16.800002098083496,49.53332941567359 C16.800002098083496,30.7856336026161 32.06022188023174,15.599999994039536 50.89999938905671,15.599999994039536 C69.73977689788171,15.599999994039536 84.99999668002992,30.7856336026161 84.99999668002992,49.53332941567359 C84.99999668002992,68.28102522873108 69.73977689788171,83.46665883730765 50.89999938905671,83.46665883730765 C32.06022188023174,83.46665883730765 16.800002098083496,68.28102522873108 16.800002098083496,49.53332941567359 z" id="svg_22" class=""/><path fill="none" fill-opacity="1" stroke="#000000" stroke-opacity="1" stroke-width="1" stroke-dasharray="none" stroke-linejoin="miter" stroke-linecap="butt" stroke-dashoffset="" fill-rule="nonzero" opacity="1" marker-start="" marker-mid="" marker-end="" d="M87,84 C87,84 87,84 87,84 C87,84 87,84 87,84 C87,84 87,84 87,84 C87,84 87,84 87,84 Z" id="svg_24"/><path fill="none" fill-opacity="1" stroke="#000000" stroke-opacity="1" stroke-width="1" stroke-dasharray="none" stroke-linejoin="miter" stroke-linecap="butt" stroke-dashoffset="" fill-rule="nonzero" opacity="1" marker-start="" marker-mid="" marker-end="" d="M40,32.5 C40,30.566298342541437 41.56629834254144,29 43.5,29 C45.43370165745856,29 47,30.566298342541437 47,32.5 C47,34.43370165745856 45.43370165745856,36 43.5,36 C41.56629834254144,36 40,34.43370165745856 40,32.5 Z" id="svg_27" class=""/><polyline fill="none" stroke="#000000" stroke-dashoffset="" fill-rule="nonzero" marker-start="" marker-mid="" marker-end="" id="svg_23" points="45,34.2 45,34.2 45.400000000000006,34.2 45.60000000000001,34.2 45.80000000000001,34.2 46,34.2 46,34.00000000000001 46,33.800000000000004 46,33.6 46,33.400000000000006 46,33.2 46,33.00000000000001 45.80000000000001,33.00000000000001 45.60000000000001,33.00000000000001 45.400000000000006,33.00000000000001 45.400000000000006,33.2 45.400000000000006,33.400000000000006 45.400000000000006,33.6 45.400000000000006,33.400000000000006 45.400000000000006,33.2 45.400000000000006,33.00000000000001 45.400000000000006,32.800000000000004 45.400000000000006,32.400000000000006 45.60000000000001,32.2 45.60000000000001,32.00000000000001 45.60000000000001,31.800000000000004 45.60000000000001,31.6 45.60000000000001,31.400000000000006 45.60000000000001,31.2 45.60000000000001,31.000000000000007 45.60000000000001,30.800000000000004 45.60000000000001,30.6 45.400000000000006,30.400000000000006 45.400000000000006,30.2 45.2,30.2 45.2,30.000000000000007 45,30.000000000000007 45,29.800000000000004 " style="color: rgb(0, 0, 0);"/><polyline fill="none" stroke="#000000" stroke-dashoffset="" fill-rule="nonzero" marker-start="" marker-mid="" marker-end="" id="svg_25" points="44.80000000000001,29.6 44.60000000000001,29.400000000000006 44.400000000000006,29.400000000000006 44.2,29.400000000000006 44,29.400000000000006 44,29.6 44.2,29.800000000000004 44.400000000000006,30.000000000000007 44.60000000000001,30.000000000000007 44.60000000000001,30.2 44.80000000000001,30.2 45,30.400000000000006 45.2,30.6 45.400000000000006,30.6 45.60000000000001,31.000000000000007 45.60000000000001,31.2 45.60000000000001,31.400000000000006 45.80000000000001,31.6 " style="color: rgb(0, 0, 0);"/><polyline fill="none" stroke="#000000" stroke-dashoffset="" fill-rule="nonzero" marker-start="" marker-mid="" marker-end="" id="svg_26" points="45.749998998641786,31.799999237060547 46,31.799999237060547 46,31.600000381469727 46,31.399999618530273 45.749998998641786,31.200000762939453 45.749998998641786,31 45.749998998641786,30.799999237060547 45.49999799728357,30.799999237060547 45.49999799728357,31 45.25000176429785,31 45.000000762939635,31.200000762939453 " style="color: rgb(0, 0, 0);" class=""/><polyline fill="none" stroke="#000000" stroke-dashoffset="" fill-rule="nonzero" marker-start="" marker-mid="" marker-end="" id="svg_28" points="46.60000000000001,32.00000000000001 46.400000000000006,32.00000000000001 " style="color: rgb(0, 0, 0);"/><path fill="none" fill-opacity="1" stroke="#000000" stroke-opacity="1" stroke-width="1" stroke-dasharray="none" stroke-linejoin="miter" stroke-linecap="butt" stroke-dashoffset="" fill-rule="nonzero" opacity="1" marker-start="" marker-mid="" marker-end="" d="M51,73 C51,71.34254143646409 52.34254143646409,70 54,70 C55.65745856353591,70 57,71.34254143646409 57,73 C57,74.65745856353591 55.65745856353591,76 54,76 C52.34254143646409,76 51,74.65745856353591 51,73 Z" id="svg_29"/><path fill="none" fill-opacity="1" stroke="#000000" stroke-opacity="1" stroke-width="1" stroke-dasharray="none" stroke-linejoin="miter" stroke-linecap="butt" stroke-dashoffset="" fill-rule="nonzero" opacity="1" marker-start="" marker-mid="" marker-end="" d="M46.60000015685432,50.0000001564199 C46.60000015685432,48.01104990745467 48.16629863288046,46.40000020579282 50.10000045513495,46.40000020579282 C52.033702277389445,46.40000020579282 53.600000753415586,48.01104990745467 53.600000753415586,50.0000001564199 C53.600000753415586,51.98895040538513 52.033702277389445,53.60000010704698 50.10000045513495,53.60000010704698 C48.16629863288046,53.60000010704698 46.60000015685432,51.98895040538513 46.60000015685432,50.0000001564199 z" id="svg_31" class=""/><path fill="none" fill-opacity="1" stroke="#000000" stroke-opacity="1" stroke-width="1" stroke-dasharray="none" stroke-linejoin="miter" stroke-linecap="butt" stroke-dashoffset="" fill-rule="nonzero" opacity="1" marker-start="" marker-mid="" marker-end="" d="M65,34.2L70,29.400000000000006" id="svg_34"/><path fill="none" fill-opacity="1" stroke="#000000" stroke-opacity="1" stroke-width="1" stroke-dasharray="none" stroke-linejoin="miter" stroke-linecap="butt" stroke-dashoffset="" fill-rule="nonzero" opacity="1" marker-start="" marker-mid="" marker-end="" d="M70.80000000000001,35.00000000000001L65.80000000000001,29.400000000000006" id="svg_30"/><path fill="none" fill-opacity="1" stroke="#000000" stroke-opacity="1" stroke-width="1" stroke-dasharray="none" stroke-linejoin="miter" stroke-linecap="butt" stroke-dashoffset="" fill-rule="nonzero" opacity="1" marker-start="" marker-mid="" marker-end="" d="M25,58.20000000000001L30.600000000000012,53.4" id="svg_32"/><path fill="none" fill-opacity="1" stroke="#000000" stroke-opacity="1" stroke-width="1" stroke-dasharray="none" stroke-linejoin="miter" stroke-linecap="butt" stroke-dashoffset="" fill-rule="nonzero" opacity="1" marker-start="" marker-mid="" marker-end="" d="M30.600000000000012,58.4L25.600000000000012,53.4" id="svg_35"/><path fill="none" fill-opacity="1" stroke="#000000" stroke-opacity="1" stroke-width="1" stroke-dasharray="none" stroke-linejoin="miter" stroke-linecap="butt" stroke-dashoffset="" fill-rule="nonzero" opacity="1" marker-start="" marker-mid="" marker-end="" d="M67.80000000000001,61.40000000000001L73.4,56.4" id="svg_37"/><path fill="none" fill-opacity="1" stroke="#000000" stroke-opacity="1" stroke-width="1" stroke-dasharray="none" stroke-linejoin="miter" stroke-linecap="butt" stroke-dashoffset="" fill-rule="nonzero" opacity="1" marker-start="" marker-mid="" marker-end="" d="M73,62.20000000000001L67.60000000000001,56.8" id="svg_39"/><path fill="none" fill-opacity="1" stroke="#000000" stroke-opacity="1" stroke-width="1" stroke-dasharray="none" stroke-linejoin="miter" stroke-linecap="butt" stroke-dashoffset="" fill-rule="nonzero" opacity="1" marker-start="" marker-mid="" marker-end="" d="M31.600000000000012,15L37.60000000000001,9.000000000000004" id="svg_41"/><path fill="" fill-opacity="1" stroke="#000000" stroke-opacity="1" stroke-width="1" stroke-dasharray="none" stroke-linejoin="miter" stroke-linecap="butt" stroke-dashoffset="" fill-rule="nonzero" opacity="1" marker-start="" marker-mid="" marker-end="" d="M37.60000000000001,14.200000000000003L31.400000000000006,9.600000000000001" id="svg_44"/><polyline fill="none" stroke="#000000" stroke-dashoffset="" fill-rule="nonzero" marker-start="" marker-mid="" marker-end="" id="svg_46" points="43.80000000000001,34.800000000000004 44.2,35.00000000000001 44.400000000000006,35.00000000000001 44.60000000000001,35.00000000000001 44.80000000000001,35.00000000000001 45,35.00000000000001 45,34.800000000000004 45.2,34.800000000000004 45.2,34.6 45.400000000000006,34.400000000000006 45.400000000000006,34.2 45.60000000000001,34.00000000000001 45.80000000000001,33.800000000000004 45.80000000000001,33.6 46,33.400000000000006 46,33.2 46.2,32.800000000000004 46.2,32.6 46.2,32.400000000000006 46.2,32.2 46.2,31.800000000000004 46.2,31.6 46.2,31.2 46,31.2 45.80000000000001,31.400000000000006 45.80000000000001,31.6 45.80000000000001,31.6 43.400000000000006,35.400000000000006 " style="color: rgb(0, 0, 0);" class=""/><polyline fill="none" stroke="#000000" stroke-dashoffset="" fill-rule="nonzero" marker-start="" marker-mid="" marker-end="" id="svg_47" points="53,50.20000000000001 53,50.20000000000001 52.80000000000001,50.00000000000001 52.60000000000001,50.20000000000001 52.60000000000001,50.4 52.60000000000001,50.6 52.60000000000001,50.800000000000004 52.4,50.800000000000004 52.4,51.00000000000001 52.2,51.4 52.2,51.8 52.2,52.000000000000014 52,52.20000000000001 51.80000000000001,52.4 51.80000000000001,52.6 51.60000000000001,52.6 51.4,52.6 51.4,52.8 51,52.8 50.80000000000001,52.8 50.60000000000001,53.000000000000014 50.400000000000006,53.000000000000014 50.2,53.000000000000014 50,53.20000000000001 49.80000000000001,53.20000000000001 49.60000000000001,53.20000000000001 49.2,53.20000000000001 " style="color: rgb(0, 0, 0);"/></g></svg>