<svg xmlns="http://www.w3.org/2000/svg" xmlns:xlink="http://www.w3.org/1999/xlink" version="1.1" style="" xml:space="preserve" width="82.39999999999998" height="79.99999999999999"><rect id="backgroundrect" width="100%" height="100%" x="0" y="0" fill="none" stroke="none" class="" style=""/><g class="currentLayer" style=""><title>Layer 1</title><path d="M65.79777572719578,61.29421572645802 c-0.8235684227992979,0 -1.5917043353300357,0.2339451519468918 -2.2838185472946844,0.6117234897105821 l-9.537555890732161,-10.435689716619692 c0.3452651828594155,-0.7572893147126154 0.5590763170638086,-1.597759151555476 0.5590763170638086,-2.4988814746331074 c0,-3.0984745380774448 -2.3044077375922134,-5.61988404860602 -5.136216164768844,-5.61988404860602 c-0.8235684227992979,0 -1.5917043353300357,0.2339451519468918 -2.2838185472946844,0.6117234897105821 l-9.53834781385507,-10.436556213664089 c0.3468490291052358,-0.7555563206238176 0.5598680780070896,-1.596892654511075 0.5598680780070896,-2.498014977588708 s-0.21301921108148336,-1.7407256628760956 -0.5590763170638086,-2.496282160951691 l9.539139574798353,-10.439155527345505 C47.807557106133864,18.472709563419308 48.5756930186646,18.705788395773574 49.3992614414639,18.705788395773574 s1.5917043353300357,-0.2330788323542727 2.2838185472946844,-0.6125898093032006 l9.537555890732161,10.437422533256708 C60.87537053445169,29.286177440350905 60.66155956242693,30.127513774238153 60.66155956242693,31.028636097315797 c0,3.0984745380774448 2.3044077375922134,5.61988404860602 5.136216164768844,5.61988404860602 s5.136216164768844,-2.5214095105285756 5.136216164768844,-5.61988404860602 s-2.3044077375922134,-5.61988404860602 -5.136216164768844,-5.61988404860602 c-0.8235684227992979,0 -1.5917043353300357,0.2330788323542727 -2.2838185472946844,0.6125898093032006 l-9.537555890732161,-10.437422533256708 c0.3452651828594155,-0.7555563206238176 0.5590763170638086,-1.596892654511075 0.5590763170638086,-2.498014977588708 c0,-3.0984745380774448 -2.3044077375922134,-5.61988404860602 -5.136216164768844,-5.61988404860602 s-5.136216164768844,2.5214095105285756 -5.136216164768844,5.61988404860602 c0,0.9019888201220322 0.2138109720247652,1.7424586569648934 0.5606600011299996,2.498014977588708 l-9.53834781385507,10.438289030301108 c-0.6913222888417385,-0.3795111544007067 -1.4602501244953865,-0.6134563063475976 -2.284610470417595,-0.6134563063475976 c-2.8318084271766306,0 -5.136216164768844,2.5214095105285756 -5.136216164768844,5.61988404860602 c0,0.9011223230776313 0.21301921108148336,1.7424586569648934 0.5598680780070896,2.498014977588708 l-9.539139574798353,10.436556213664089 c-0.6905303657188282,-0.37777816031190997 -1.4594582013724766,-0.6117234897105821 -2.2830266241717743,-0.6117234897105821 c-2.8318084271766306,0 -5.136216164768844,2.5214095105285756 -5.136216164768844,5.61988404860602 s2.3044077375922134,5.61988404860602 5.136216164768844,5.61988404860602 S21.738448872589352,52.06984238554148 21.738448872589352,48.97136802491581 c0,-0.9011223230776313 -0.21301921108148336,-1.7415921599204918 -0.5598680780070896,-2.4988814746331074 l9.539139574798353,-10.436556213664089 c0.6905303657188282,0.3795111544007067 1.4594582013724766,0.6125898093032006 2.2830266241717743,0.6125898093032006 s1.5924962584529458,-0.2330788323542727 2.2830266241717743,-0.6125898093032006 l9.53834781385507,10.436556213664089 c-0.3452651828594155,0.7572893147126154 -0.5590763170638086,1.597759151555476 -0.5590763170638086,2.4988814746331074 c0,0.9028553171664316 0.2138109720247652,1.7433251540092898 0.5606600011299996,2.4988814746331074 l-9.539931497921264,10.435689716619692 C34.59324325200534,61.52816087840492 33.82431541635168,61.29421572645802 33.00074699355238,61.29421572645802 c-2.8318084271766306,0 -5.136216164768844,2.5214095105285756 -5.136216164768844,5.61988404860602 s2.3044077375922134,5.61988404860602 5.136216164768844,5.61988404860602 s5.136216164768844,-2.5214095105285756 5.136216164768844,-5.61988404860602 c0,-0.9011223230776313 -0.21301921108148336,-1.7415921599204918 -0.5598680780070896,-2.4988814746331074 l9.539931497921264,-10.435689716619692 c0.6905303657188282,0.37777816031190997 1.4586664404291938,0.6117234897105821 2.2822348632284917,0.6117234897105821 s1.5917043353300357,-0.2339451519468918 2.2838185472946844,-0.6117234897105821 l9.537555890732161,10.435689716619692 C60.87537053445169,65.17250761514356 60.66155956242693,66.01297745198642 60.66155956242693,66.91409977506405 c0,3.0984745380774448 2.3044077375922134,5.61988404860602 5.136216164768844,5.61988404860602 s5.136216164768844,-2.5214095105285756 5.136216164768844,-5.61988404860602 S68.62958399219278,61.29421572645802 65.79777572719578,61.29421572645802 zM67.69039933447816,31.028636097315797 c0,1.1419992739279348 -0.8489089896546608,2.0708484377156493 -1.8926236072823819,2.0708484377156493 S63.905152119913396,32.17063537124373 63.905152119913396,31.028636097315797 s0.8489089896546608,-2.0708484377156493 1.8926236072823819,-2.0708484377156493 S67.69039933447816,29.88663682338786 67.69039933447816,31.028636097315797 zM49.3992614414639,11.015055909451906 c1.0437146176277174,0 1.8926236072823819,0.9288491637877142 1.8926236072823819,2.0708484377156493 S50.44297605909161,15.156752784883203 49.3992614414639,15.156752784883203 s-1.8926236072823819,-0.9288491637877142 -1.8926236072823819,-2.0708484377156493 S48.35554682383618,11.015055909451906 49.3992614414639,11.015055909451906 zM16.602232707820505,51.04221628517968 c-1.0437146176277174,0 -1.8926236072823819,-0.9288491637877142 -1.8926236072823819,-2.0708484377156493 s0.8489089896546608,-2.0708484377156493 1.8926236072823819,-2.0708484377156493 S18.494856315102886,47.829368750987875 18.494856315102886,48.97136802491581 S17.645947325448226,51.04221628517968 16.602232707820505,51.04221628517968 zM31.10812354844964,31.028636097315797 c0,-1.1419992739279348 0.8489089896546608,-2.0708484377156493 1.8926236072823819,-2.0708484377156493 s1.8926236072823819,0.9288491637877142 1.8926236072823819,2.0708484377156493 s-0.8489089896546608,2.0708484377156493 -1.8926236072823819,2.0708484377156493 S31.10812354844964,32.17063537124373 31.10812354844964,31.028636097315797 zM33.00074699355238,68.9849482127797 c-1.0437146176277174,0 -1.8926236072823819,-0.9288491637877142 -1.8926236072823819,-2.0708484377156493 S31.95703237592467,64.84325133734839 33.00074699355238,64.84325133734839 s1.8926236072823819,0.9288491637877142 1.8926236072823819,2.0708484377156493 S34.04446161118011,68.9849482127797 33.00074699355238,68.9849482127797 zM47.50663783418152,48.97136802491581 c0,-1.1419992739279348 0.8489089896546608,-2.0708484377156493 1.8926236072823819,-2.0708484377156493 s1.8926236072823819,0.9288491637877142 1.8926236072823819,2.0708484377156493 s-0.8489089896546608,2.0708484377156493 -1.8926236072823819,2.0708484377156493 S47.50663783418152,50.113367298843755 47.50663783418152,48.97136802491581 zM65.79777572719578,68.9849482127797 C64.75406110956806,68.9849482127797 63.905152119913396,68.05609904899198 63.905152119913396,66.91409977506405 S64.75406110956806,64.84325133734839 65.79777572719578,64.84325133734839 s1.8926236072823819,0.9288491637877142 1.8926236072823819,2.0708484377156493 S66.8414903448235,68.9849482127797 65.79777572719578,68.9849482127797 z" id="svg_1" class=""/></g></svg>