<?xml version="1.0" encoding="UTF-8"?>
<svg xmlns="http://www.w3.org/2000/svg" xmlns:xlink="http://www.w3.org/1999/xlink" width="120pt" height="120pt" viewBox="0 0 120 120" version="1.1">
<g id="surface1">
<path style=" stroke:none;fill-rule:nonzero;fill:rgb(0%,0%,0%);fill-opacity:1;" d="M 97.917969 72 C 96.648438 72 95.464844 72.261719 94.398438 72.691406 L 79.695312 60.929688 C 80.226562 60.074219 80.558594 59.128906 80.558594 58.113281 C 80.558594 54.617188 77.003906 51.777344 72.640625 51.777344 C 71.371094 51.777344 70.1875 52.039062 69.117188 52.46875 L 54.414062 40.703125 C 54.949219 39.851562 55.277344 38.90625 55.277344 37.890625 C 55.277344 36.875 54.949219 35.925781 54.417969 35.074219 L 69.121094 23.308594 C 70.1875 23.738281 71.371094 24 72.640625 24 C 73.910156 24 75.09375 23.738281 76.160156 23.308594 L 90.863281 35.074219 C 90.328125 35.925781 90 36.871094 90 37.886719 C 90 41.382812 93.550781 44.222656 97.917969 44.222656 C 102.28125 44.222656 105.835938 41.382812 105.835938 37.886719 C 105.835938 34.394531 102.28125 31.554688 97.917969 31.554688 C 96.648438 31.554688 95.464844 31.816406 94.398438 32.246094 L 79.695312 20.480469 C 80.226562 19.628906 80.558594 18.679688 80.558594 17.664062 C 80.558594 14.171875 77.003906 11.332031 72.640625 11.332031 C 68.273438 11.332031 64.722656 14.171875 64.722656 17.664062 C 64.722656 18.683594 65.050781 19.628906 65.585938 20.480469 L 50.882812 32.246094 C 49.816406 31.816406 48.632812 31.554688 47.359375 31.554688 C 42.996094 31.554688 39.441406 34.394531 39.441406 37.886719 C 39.441406 38.902344 39.773438 39.851562 40.304688 40.703125 L 25.601562 52.464844 C 24.539062 52.039062 23.351562 51.777344 22.082031 51.777344 C 17.71875 51.777344 14.164062 54.617188 14.164062 58.109375 C 14.164062 61.601562 17.71875 64.445312 22.082031 64.445312 C 26.449219 64.445312 30 61.601562 30 58.113281 C 30 57.097656 29.671875 56.148438 29.136719 55.296875 L 43.839844 43.53125 C 44.90625 43.960938 46.089844 44.222656 47.359375 44.222656 C 48.628906 44.222656 49.816406 43.960938 50.878906 43.53125 L 65.582031 55.296875 C 65.050781 56.148438 64.722656 57.097656 64.722656 58.113281 C 64.722656 59.128906 65.050781 60.078125 65.585938 60.929688 L 50.878906 72.691406 C 49.816406 72.261719 48.628906 72 47.359375 72 C 42.996094 72 39.441406 74.839844 39.441406 78.335938 C 39.441406 81.828125 42.996094 84.667969 47.359375 84.667969 C 51.726562 84.667969 55.277344 81.828125 55.277344 78.335938 C 55.277344 77.320312 54.949219 76.371094 54.414062 75.519531 L 69.121094 63.757812 C 70.183594 64.179688 71.371094 64.445312 72.640625 64.445312 C 73.910156 64.445312 75.09375 64.183594 76.160156 63.757812 L 90.863281 75.519531 C 90.328125 76.371094 90 77.320312 90 78.335938 C 90 81.828125 93.550781 84.667969 97.917969 84.667969 C 102.28125 84.667969 105.835938 81.828125 105.835938 78.335938 C 105.835938 74.839844 102.28125 72 97.917969 72 Z M 100.835938 37.886719 C 100.835938 39.175781 99.527344 40.222656 97.917969 40.222656 C 96.308594 40.222656 95 39.175781 95 37.886719 C 95 36.601562 96.308594 35.554688 97.917969 35.554688 C 99.527344 35.554688 100.835938 36.601562 100.835938 37.886719 Z M 72.640625 15.332031 C 74.25 15.332031 75.558594 16.378906 75.558594 17.664062 C 75.558594 18.953125 74.25 20 72.640625 20 C 71.03125 20 69.722656 18.953125 69.722656 17.664062 C 69.722656 16.378906 71.03125 15.332031 72.640625 15.332031 Z M 22.082031 60.445312 C 20.472656 60.445312 19.164062 59.398438 19.164062 58.109375 C 19.164062 56.824219 20.472656 55.777344 22.082031 55.777344 C 23.691406 55.777344 25 56.824219 25 58.113281 C 25 59.398438 23.691406 60.445312 22.082031 60.445312 Z M 44.445312 37.886719 C 44.445312 36.601562 45.753906 35.554688 47.359375 35.554688 C 48.96875 35.554688 50.277344 36.601562 50.277344 37.886719 C 50.277344 39.175781 48.96875 40.222656 47.359375 40.222656 C 45.753906 40.222656 44.445312 39.175781 44.445312 37.886719 Z M 47.359375 80.667969 C 45.75 80.667969 44.441406 79.621094 44.441406 78.335938 C 44.441406 77.046875 45.75 76 47.359375 76 C 48.96875 76 50.277344 77.046875 50.277344 78.335938 C 50.277344 79.621094 48.96875 80.667969 47.359375 80.667969 Z M 69.722656 58.113281 C 69.722656 56.824219 71.03125 55.777344 72.640625 55.777344 C 74.25 55.777344 75.558594 56.824219 75.558594 58.113281 C 75.558594 59.398438 74.25 60.445312 72.640625 60.445312 C 71.03125 60.445312 69.722656 59.398438 69.722656 58.113281 Z M 97.917969 80.667969 C 96.308594 80.667969 95 79.621094 95 78.335938 C 95 77.046875 96.308594 76 97.917969 76 C 99.527344 76 100.835938 77.046875 100.835938 78.335938 C 100.835938 79.621094 99.527344 80.667969 97.917969 80.667969 Z M 97.917969 80.667969 "/>
</g>
</svg>
